<!-- Generated by IcoMoon.io -->
<svg version="1.1" xmlns="http://www.w3.org/2000/svg" width="10752" height="1024" viewBox="0 0 10752 1024">
<g id="icomoon-ignore">
</g>
<path d="M930.63 10.043h-128.301c-39.59 0-71.686 31.451-71.686 70.251v125.737c0 38.799 32.096 70.252 71.686 70.252h128.301c39.59 0 71.686-31.453 71.686-70.252v-125.737c0-38.8-32.096-70.251-71.686-70.251z"></path>
<path d="M215.372 737.28h-138.173c-42.636 0-77.199 31.456-77.199 70.253v125.734c0 38.803 34.563 70.253 77.199 70.253h138.173c42.636 0 77.199-31.45 77.199-70.253v-125.734c0-38.797-34.563-70.253-77.199-70.253z"></path>
<path d="M199.987 370.618h-128.303c-39.589 0-71.684 31.451-71.684 70.25v125.737c0 38.799 32.102 70.253 71.692 70.253h128.296c39.591 0 71.686-31.453 71.686-70.253v-125.737c0-38.799-32.095-70.25-71.686-70.25z"></path>
<path d="M568.509 735.302h-128.303c-39.589 0-71.684 31.45-71.684 70.253l-0.007 125.734c0 38.797 32.109 70.253 71.699 70.253h128.296c39.592 0 71.69-31.456 71.69-70.253v-125.734c0-38.803-32.098-70.253-71.69-70.253z"></path>
<path d="M199.987 2.761h-128.303c-39.589 0-71.684 31.451-71.684 70.25v125.737c0 38.799 32.102 70.253 71.692 70.253h128.296c39.591 0 71.686-31.453 71.686-70.253v-125.737c0-38.799-32.095-70.25-71.686-70.25z"></path>
<path d="M578.428 374.319h-128.303c-39.589 0-71.684 31.451-71.684 70.25v125.737c0 38.799 32.102 70.25 71.692 70.25h128.296c39.591 0 71.684-31.451 71.684-70.25v-125.737c0-38.799-32.093-70.25-71.684-70.25z"></path>
<path d="M938.669 735.302h-128.307c-39.584 0-71.68 31.45-71.68 70.253v125.734c0 38.797 32.102 70.253 71.686 70.253h128.301c39.59 0 71.686-31.456 71.686-70.253v-125.734c0-38.803-32.096-70.253-71.686-70.253z"></path>
<path d="M562.899 7.159h-128.303c-39.589 0-71.684 31.451-71.684 70.251v125.737c0 38.799 32.102 70.252 71.692 70.252h128.296c39.591 0 71.686-31.476 71.686-70.276v-125.713c0-38.8-32.095-70.251-71.686-70.251z"></path>
<path d="M929.402 381.626h-128.307c-39.59 0-71.68 31.451-71.68 70.25v125.737c0 38.799 32.102 70.252 71.686 70.252h128.301c39.59 0 71.686-31.453 71.686-70.252v-125.737c0-38.799-32.096-70.25-71.686-70.25z"></path>
<path d="M1683.264 896c-242.419 0-403.264-150.528-403.264-385.024 0-229.376 158.547-382.976 397.517-382.976 201.056 0 342.368 105.472 363.053 264.192h-166.592c-16.083-91.136-93.062-142.336-196.461-142.336-144.762 0-230.925 104.448-230.925 261.12 0 172.032 96.506 263.168 236.672 263.168 121.779 0 199.904-61.44 207.949-153.6v-10.24h-224.038v-114.688h379.136v94.208c-6.893 183.296-151.654 306.176-363.046 306.176z"></path>
<path d="M2146.752 885.76v-747.52h403.258c205.651 0 287.226 89.088 287.226 218.112 0 115.712-91.91 171.008-198.758 184.32v3.072c68.934 15.36 99.955 49.152 128.678 115.712 36.762 83.968 42.509 184.32 89.613 220.16v6.144h-183.827c-39.059-34.816-48.25-144.384-68.934-210.944-20.678-68.608-65.485-76.8-149.35-76.8h-147.059v287.744h-160.845zM2307.597 479.232h225.184c94.208 0 137.862-49.152 137.862-112.64 0-69.632-53.997-109.568-137.862-109.568h-225.184v222.208z"></path>
<path d="M2944.064 885.76v-747.52h573.299v118.784h-412.454v178.176h372.243v118.784h-372.243v209.92h418.195v121.856h-579.040z"></path>
<path d="M3634.79 885.76v-747.52h573.299v118.784h-412.454v178.176h372.243v118.784h-372.243v209.92h418.195v121.856h-579.040z"></path>
<path d="M4325.517 885.76v-747.52h195.315l278.029 412.672c85.018 124.928 95.36 165.888 95.36 165.888h3.443l-2.298-578.56h160.845v747.52h-196.461l-288.371-424.96c-65.485-96.256-82.72-154.624-82.72-154.624h-2.298v579.584h-160.845z"></path>
<path d="M5177.216 885.76v-151.552h167.738v151.552h-167.738z"></path>
<path d="M5465.747 885.76v-747.52h160.845v299.008h384.883v-299.008h160.845v747.52h-160.845v-329.728h-384.883v329.728h-160.845z"></path>
<path d="M6241.062 885.76l321.69-747.52h174.656l326.272 747.52h-172.352l-67.776-172.032h-348.096l-67.776 172.032h-166.618zM6521.408 594.944h256.192l-74.688-184.32c-51.712-136.192-52.864-160.768-52.864-160.768h-2.304c0 0 0 24.576-51.648 160.768l-74.688 184.32z"></path>
<path d="M7132.16 885.76v-747.52h403.264c205.696 0 287.232 89.088 287.232 218.112 0 115.712-91.904 171.008-198.72 184.32v3.072c68.928 15.36 99.904 49.152 128.64 115.712 36.8 83.968 42.496 184.32 89.6 220.16v6.144h-183.808c-39.040-34.816-48.256-144.384-68.928-210.944-20.672-68.608-65.472-76.8-149.376-76.8h-147.008v287.744h-160.896zM7293.056 479.232h225.152c94.208 0 137.856-49.152 137.856-112.64 0-69.632-54.016-109.568-137.856-109.568h-225.152v222.208z"></path>
<path d="M8100.032 885.76l-307.904-747.52h172.352c0 0 166.592 418.816 183.808 470.016 27.584 81.92 40.192 123.904 40.192 123.904h2.304c-1.152 0 11.52-41.984 40.192-123.904 18.432-51.2 178.112-470.016 178.112-470.016h166.592l-296.448 747.52h-179.2z"></path>
<path d="M8641.536 885.76v-747.52h573.312v118.784h-412.48v178.176h372.288v118.784h-372.288v209.92h418.24v121.856h-579.072z"></path>
<path d="M9619.904 896c-213.696 0-342.4-103.424-342.4-257.024h183.872c-2.304 87.040 62.016 135.168 158.528 135.168 102.272 0 150.464-35.84 150.464-89.088s-41.344-75.776-188.416-111.616c-134.4-32.768-281.472-71.68-281.472-225.28 0-121.856 119.488-220.16 307.904-220.16 194.176 0 318.272 97.28 318.272 234.496h-178.112c-1.152-72.704-56.256-112.64-140.16-112.64-81.536 0-135.552 36.864-135.552 86.016 0 58.368 44.8 76.8 161.984 106.496 173.504 43.008 313.664 60.416 313.664 227.328 0 134.144-136.704 226.304-328.576 226.304z"></path>
<path d="M10210.368 885.76v-625.664h-253.888v-121.856h667.52v121.856h-252.736v625.664h-160.896z"></path>
</svg>
