<!-- Generated by IcoMoon.io -->
<svg version="1.1" xmlns="http://www.w3.org/2000/svg" width="11059" height="1024" viewBox="0 0 11059 1024">
<g id="icomoon-ignore">
</g>
<path d="M930.632 10.043h-128.307c-39.588 0-71.68 31.451-71.68 70.25v125.737c0 38.799 32.092 70.253 71.68 70.253h128.307c39.588 0 71.685-31.453 71.685-70.253v-125.737c0-38.799-32.097-70.25-71.685-70.25z"></path>
<path d="M215.372 737.28h-138.173c-42.636 0-77.199 31.452-77.199 70.252v125.737c0 38.799 34.563 70.252 77.199 70.252h138.173c42.636 0 77.199-31.452 77.199-70.252v-125.737c0-38.799-34.564-70.252-77.199-70.252z"></path>
<path d="M199.987 370.618h-128.303c-39.589 0-71.684 31.451-71.684 70.25v125.736c0 38.799 32.102 70.252 71.691 70.252h128.296c39.591 0 71.686-31.452 71.686-70.252v-125.736c0-38.799-32.095-70.25-71.686-70.25z"></path>
<path d="M568.509 735.304h-128.304c-39.589 0-71.684 31.447-71.684 70.246l-0.007 125.737c0 38.799 32.11 70.257 71.699 70.257h128.296c39.593 0 71.685-31.457 71.685-70.257v-125.737c0-38.799-32.092-70.246-71.685-70.246z"></path>
<path d="M199.987 2.761h-128.303c-39.589 0-71.684 31.451-71.684 70.25v125.737c0 38.799 32.102 70.253 71.691 70.253h128.296c39.591 0 71.686-31.453 71.686-70.253v-125.737c0-38.799-32.095-70.25-71.686-70.25z"></path>
<path d="M578.427 374.319h-128.302c-39.589 0-71.684 31.451-71.684 70.25v125.737c0 38.799 32.102 70.252 71.691 70.252h128.294c39.593 0 71.685-31.452 71.685-70.252v-125.737c0-38.799-32.092-70.25-71.685-70.25z"></path>
<path d="M938.665 735.304h-128.302c-39.588 0-71.685 31.447-71.685 70.246v125.737c0 38.799 32.102 70.257 71.695 70.257h128.292c39.593 0 71.69-31.457 71.69-70.257v-125.737c0-38.799-32.097-70.246-71.69-70.246z"></path>
<path d="M562.898 7.159h-128.302c-39.589 0-71.684 31.451-71.684 70.251v125.736c0 38.799 32.102 70.253 71.691 70.253h128.295c39.593 0 71.685-31.477 71.685-70.276v-125.713c0-38.8-32.092-70.251-71.685-70.251z"></path>
<path d="M929.398 381.626h-128.302c-39.588 0-71.685 31.451-71.685 70.25v125.736c0 38.799 32.102 70.252 71.695 70.252h128.292c39.593 0 71.69-31.452 71.69-70.252v-125.736c0-38.799-32.097-70.25-71.69-70.25z"></path>
<path d="M1891.594 967.132c-247.951 0-412.467-167.25-412.467-427.802 0-254.864 162.166-425.53 406.589-425.53 205.65 0 350.188 117.191 371.338 293.546h-170.388c-16.456-101.262-95.186-158.151-200.95-158.151-148.065 0-236.201 116.054-236.201 290.135 0 191.145 98.714 292.408 242.079 292.408 124.564 0 204.472-68.27 212.695-170.67v-11.377h-229.146v-127.432h387.789v104.678c-7.050 203.663-155.116 340.193-371.338 340.193z"></path>
<path d="M2365.665 955.756v-830.578h412.467c210.345 0 293.78 98.986 293.78 242.346 0 128.569-94.008 190.008-203.295 204.799v3.415c70.508 17.065 102.236 54.61 131.615 128.568 37.601 93.297 43.479 204.8 91.658 244.623v6.825h-188.022c-39.951-38.687-49.357-160.425-70.508-234.383-21.151-76.232-66.98-85.33-152.765-85.33h-150.415v319.713h-164.516zM2530.181 504.058h230.323c96.364 0 141.015-54.614 141.015-125.156 0-77.369-55.229-121.742-141.015-121.742h-230.323v246.898z"></path>
<path d="M3181.179 955.756v-830.578h586.388v131.982h-421.868v197.973h380.739v131.982h-380.739v233.247h427.745v135.393h-592.266z"></path>
<path d="M3887.677 955.756v-830.578h586.388v131.982h-421.873v197.973h380.744v131.982h-380.744v233.247h427.745v135.393h-592.261z"></path>
<path d="M4594.176 955.756v-830.578h199.772l284.38 458.523c86.932 138.808 97.531 184.32 97.531 184.32h3.533l-2.355-642.843h164.506v830.578h-200.96l-294.932-472.178c-66.98-106.951-84.608-171.805-84.608-171.805h-2.35v643.982h-164.516z"></path>
<path d="M5465.293 955.756v-168.392h171.571v168.392h-171.571z"></path>
<path d="M5760.461 955.756v-830.578h164.506v332.231h393.677v-332.231h164.506v830.578h-164.506v-366.367h-393.677v366.367h-164.506z"></path>
<path d="M6553.446 955.756l329.062-830.578h178.586l333.773 830.578h-176.282l-69.325-191.145h-356.096l-69.325 191.145h-170.394zM6840.166 632.627h262.093l-76.39-204.801c-52.89-151.325-54.067-178.631-54.067-178.631h-2.355c0 0 0 27.306-52.89 178.631l-76.39 204.801z"></path>
<path d="M7464.909 955.756v-830.578h412.467c210.381 0 293.786 98.986 293.786 242.346 0 128.569-94.003 190.008-203.315 204.799v3.415c70.554 17.065 102.246 54.61 131.635 128.568 37.632 93.297 43.469 204.8 91.648 244.623v6.825h-188.006c-39.936-38.687-49.357-160.425-70.502-234.383-21.146-76.232-66.97-85.33-152.781-85.33h-150.426v319.713h-164.506zM7629.414 504.058h230.349c96.358 0 141.005-54.614 141.005-125.156 0-77.369-55.245-121.742-141.005-121.742h-230.349v246.898z"></path>
<path d="M8454.861 955.756l-314.931-830.578h176.282c0 0 170.394 465.353 188.006 522.241 28.211 91.023 41.114 137.672 41.114 137.672h2.355c-1.178 0 11.776-46.648 41.114-137.672 18.842-56.888 182.17-522.241 182.17-522.241h170.394l-303.206 830.578h-183.296z"></path>
<path d="M9008.742 955.756v-830.578h586.394v131.982h-421.888v197.973h380.723v131.982h-380.723v233.247h427.776v135.393h-592.282z"></path>
<path d="M10009.446 967.132c-218.573 0-350.208-114.913-350.208-285.583h188.006c-2.355 96.712 63.488 150.19 162.202 150.19 104.55 0 153.907-39.823 153.907-98.99 0-59.162-42.291-84.193-192.717-124.017-137.472-36.408-287.898-79.642-287.898-250.31 0-135.395 122.214-244.622 314.931-244.622 198.605 0 325.53 108.089 325.53 260.551h-182.17c-1.178-80.782-57.549-125.155-143.36-125.155-83.405 0-138.65 40.96-138.65 95.574 0 64.853 45.824 85.333 165.683 118.329 177.459 47.786 320.819 67.129 320.819 252.586 0 149.048-139.827 251.448-336.077 251.448z"></path>
<path d="M10613.402 955.756v-695.182h-259.686v-135.395h682.752v135.395h-258.56v695.182h-164.506z"></path>
</svg>
